<?xml version="1.0" encoding="UTF-8"?>
<svg xmlns="http://www.w3.org/2000/svg" width="260" height="38" viewBox="0 0 260 38" fill="none">
  <path d="M0 1.21143H13.5946C24.4195 1.21143 24.9744 9.77019 24.9744 19.1868C24.9744 28.6035 24.4195 37.1622 13.5946 37.1622H0V1.21366V1.21143ZM9.36539 30.4128H11.2282C14.8536 30.4128 15.3059 28.9021 15.3059 19.1846C15.3059 9.46714 14.8536 7.95638 11.2282 7.95638H9.36539V30.4128Z" fill="white"></path>
  <path d="M28.9005 1.21167H50.1983V8.86576H38.2659V15.0091H49.4429V22.3601H38.2659V29.5106H50.6506V37.1647H28.9005V1.21613V1.21167Z" fill="white"></path>
  <path d="M51.1543 1.21167H61.1236L64.9005 28.2984H65.0008L68.7777 1.21167H78.7469L70.9926 37.1602H58.9087L51.1543 1.21167Z" fill="white"></path>
  <path d="M79.901 1.21167H89.2664V37.1602H79.901V1.21167Z" fill="white"></path>
  <path d="M93.3441 1.21143H102.71V29.5081H114.239V37.1622H93.3441V1.21366V1.21143Z" fill="white"></path>
  <path d="M116.654 1.21167H137.952V8.86576H126.019V15.0091H137.196V22.3601H126.019V37.1625H116.654V1.2139V1.21167Z" fill="white"></path>
  <path d="M140.519 1.21167H149.884V37.1602H140.519V1.21167Z" fill="white"></path>
  <path d="M167.958 11.5819V10.7262C167.958 8.56033 167.102 6.84903 165.29 6.84903C163.276 6.84903 162.369 8.40881 162.369 10.0221C162.369 17.1213 177.675 13.6475 177.675 26.7875C177.675 34.4416 173.194 37.8642 164.936 37.8642C157.182 37.8642 152.852 35.1948 152.852 27.7434V26.4845H161.915V27.3401C161.915 30.4107 163.174 31.5181 164.985 31.5181C166.948 31.5181 168.007 30.0074 168.007 28.0443C168.007 20.945 153.305 24.4701 153.305 11.7312C153.305 4.43136 157.182 0.50293 165.085 0.50293C172.989 0.50293 176.715 3.87652 176.715 11.5796H167.953L167.958 11.5819Z" fill="white"></path>
  <path d="M180.997 1.21143H190.363V14.4027H196.103V1.21143H205.468V37.16H196.103V22.3577H190.363V37.16H180.997V1.21143Z" fill="white"></path>
  <path d="M259.97 21.9534C259.963 21.8828 259.957 21.8123 259.952 21.7417C259.938 21.5595 259.939 21.3748 259.909 21.1959C259.853 20.8651 259.786 20.5352 259.712 20.2077C259.582 19.6414 259.413 19.0865 259.178 18.5555C258.937 18.0097 258.639 17.4935 258.271 17.0215C258.142 16.8557 258.039 16.6702 257.856 16.5447C257.645 16.3986 257.333 16.5307 257.283 16.7679C257.247 16.9386 257.251 17.1184 257.238 17.2932C257.228 17.3769 257.218 17.4615 257.208 17.5452C257.218 17.8932 257.191 18.2379 257.14 18.5818C257.105 18.8206 257.1 19.0636 257.057 19.3008C256.95 19.8909 256.83 20.4785 256.715 21.0662C256.701 21.1376 256.686 21.2082 256.672 21.2796C256.666 21.2788 256.66 21.2771 256.655 21.2763C256.655 21.2057 256.655 21.1343 256.655 21.0637C256.641 20.9595 256.627 20.8544 256.617 20.7502C256.612 20.6977 256.619 20.6435 256.613 20.5902C256.58 20.3119 256.55 20.0329 256.507 19.7554C256.48 19.5823 256.441 19.4107 256.391 19.2425C256.354 19.1185 256.18 19.0004 256.081 19.0201C255.936 19.0496 255.794 19.0857 255.709 19.2293C255.658 19.3155 255.593 19.3919 255.542 19.478C255.231 19.9976 254.927 20.5212 254.613 21.0383C254.368 21.4396 254.109 21.8319 253.861 22.2308C253.724 22.45 253.575 22.6453 253.281 22.6363C253.276 22.6363 253.271 22.6429 253.265 22.6437C252.879 22.7093 252.513 22.8513 252.128 22.9211C251.687 23.0015 251.255 23.1312 250.815 23.2231C250.307 23.3298 249.797 23.4267 249.284 23.512C248.7 23.6097 248.111 23.6901 247.525 23.7771C247.265 23.8157 247.004 23.8518 246.744 23.8888C246.733 23.9331 246.717 23.9634 246.67 23.9183C246.612 23.9199 246.553 23.9224 246.495 23.924C246.484 23.9684 246.468 23.9987 246.421 23.9536C246.291 23.9675 246.162 23.9815 246.032 23.9954C246.021 24.0398 246.004 24.0701 245.958 24.025C245.898 24.0266 245.838 24.0217 245.78 24.0307C245.434 24.0857 245.088 24.1456 244.743 24.2023C244.518 24.2392 244.289 24.2589 244.07 24.3164C243.955 24.3467 243.803 24.3779 243.758 24.5084C243.727 24.5979 243.671 24.6151 243.606 24.6529C243.543 24.6906 243.486 24.7489 243.446 24.8113C243.389 24.9016 243.356 25.0066 243.303 25.0994C243.24 25.2093 243.161 25.3111 243.098 25.4211C242.994 25.6049 242.898 25.7937 242.794 25.9767C242.771 26.0153 242.727 26.0424 242.693 26.0744C242.679 26.0711 242.664 26.0678 242.65 26.0646C242.701 25.9603 242.563 25.8971 242.628 25.7814C242.797 25.4802 242.954 25.1716 243.12 24.8687C243.261 24.6118 243.408 24.3574 243.556 24.0956C243.853 24.0562 244.158 24.0184 244.462 23.9749C244.852 23.9191 245.241 23.8567 245.63 23.7993C245.811 23.7722 246.001 23.7755 246.171 23.7172C246.324 23.6647 246.477 23.6598 246.629 23.6343C246.825 23.6015 247.022 23.5769 247.218 23.5473C247.415 23.5178 247.611 23.4841 247.808 23.4562C248.004 23.4283 248.203 23.407 248.399 23.3782C248.695 23.3347 248.989 23.2896 249.284 23.242C249.555 23.1977 249.837 23.2001 250.084 23.0516C250.104 23.0393 250.127 23.0311 250.15 23.0261C250.498 22.94 250.846 22.8538 251.194 22.7684C251.346 22.7312 251.418 22.6322 251.411 22.4713C251.411 22.4533 251.408 22.436 251.407 22.418C251.398 22.2062 251.388 21.9936 251.379 21.7819C251.376 21.7474 251.373 21.7129 251.37 21.6785C251.377 21.6752 251.385 21.6719 251.393 21.6686C251.41 21.7047 251.427 21.7408 251.445 21.777C251.579 22.0101 251.712 22.244 251.847 22.4762C251.877 22.5279 251.914 22.5862 251.984 22.5632C252.106 22.5238 252.231 22.4861 252.344 22.427C252.499 22.3449 252.64 22.2349 252.796 22.1537C252.988 22.0527 253.19 21.9707 253.385 21.8746C253.435 21.85 253.488 21.8106 253.516 21.7638C253.698 21.4544 253.872 21.1409 254.05 20.829C254.09 20.7592 254.083 20.7075 254.032 20.6394C253.877 20.4326 253.733 20.2184 253.587 20.0041C253.243 19.4986 252.909 18.9856 252.556 18.4866C252.402 18.2691 252.261 18.0532 252.202 17.7898C252.169 17.6478 252.127 17.5082 252.088 17.3671C252.054 17.271 252.021 17.175 251.987 17.0782C251.975 17.0576 251.96 17.0379 251.953 17.0158C251.824 16.5791 251.629 16.1712 251.409 15.774C251.334 15.6402 251.252 15.5072 251.205 15.3628C250.968 14.6331 250.724 13.9051 250.574 13.1517C250.481 12.6847 250.401 12.2144 250.323 11.7449C250.282 11.4954 250.254 11.2434 250.228 10.9915C250.201 10.7223 250.169 10.4522 250.168 10.1822C250.168 9.93599 250.201 9.68812 250.23 9.44272C250.285 8.97735 250.381 8.52101 250.589 8.09833C250.806 7.65841 251.091 7.27347 251.524 7.01658C251.789 6.85899 252.08 6.7605 252.383 6.78184C252.902 6.81796 253.338 7.05351 253.713 7.41464C253.993 7.68549 254.192 8.00969 254.362 8.35276C254.471 8.57436 254.55 8.81074 254.641 9.04137C254.65 9.06353 254.642 9.09226 254.642 9.1218C254.511 9.06599 254.395 9.011 254.274 8.96668C253.853 8.81074 253.459 8.97735 253.269 9.3984C253.13 9.70946 253.135 10.0263 253.218 10.3439C253.37 10.9225 253.684 11.4248 253.995 11.9247C254.238 12.3162 254.526 12.6765 254.846 13.0097C254.965 13.1336 255.083 13.26 255.217 13.3667C255.448 13.5514 255.644 13.5645 255.852 13.3002C256.181 12.8849 256.532 12.4885 256.831 12.0494C257.142 11.5923 257.407 11.1154 257.55 10.5786C257.641 10.2397 257.668 9.89249 257.596 9.54777C257.536 9.26215 257.411 9.01182 257.184 8.80417C256.908 8.55138 256.415 8.40283 256.028 8.59734C255.81 8.7065 255.596 8.81813 255.457 9.03152C255.44 9.05779 255.404 9.07092 255.375 9.09144C255.342 9.00444 255.311 8.92893 255.284 8.85096C255.085 8.28874 254.87 7.73802 254.475 7.27183C254.135 6.86966 253.76 6.52167 253.269 6.31484C252.761 6.10144 252.239 6.05055 251.707 6.19583C251.344 6.29514 251.035 6.49048 250.757 6.75312C250.411 7.07896 250.148 7.45568 249.957 7.88329C249.648 8.57108 249.543 9.30401 249.525 10.0484C249.517 10.4071 249.553 10.7674 249.581 11.1261C249.609 11.4667 249.637 11.8089 249.697 12.1446C249.799 12.7306 249.926 13.3126 250.043 13.8953C250.054 13.947 250.066 13.9987 250.087 14.0923C250.012 14.0299 249.973 13.9954 249.933 13.9626C249.751 13.8124 249.578 13.6474 249.382 13.5169C248.849 13.1615 248.287 12.8562 247.668 12.674C247.566 12.6436 247.503 12.5903 247.458 12.5033C247.401 12.3941 247.347 12.2833 247.286 12.1766C247.039 11.7474 246.788 11.3206 246.541 10.8922C246.349 10.5606 246.16 10.2274 245.968 9.89577C245.777 9.56419 245.587 9.23178 245.388 8.90431C245.183 8.56698 244.971 8.23375 244.755 7.90299C244.695 7.81024 244.618 7.72407 244.535 7.65184C244.383 7.5197 244.079 7.49426 243.899 7.67072C243.603 7.95962 243.313 8.25509 243.022 8.54892C242.939 8.63182 242.859 8.71799 242.764 8.81813C242.729 8.7459 242.704 8.69501 242.679 8.64331C242.51 8.28218 242.341 7.92022 242.169 7.55992C242.09 7.39494 242.008 7.23244 241.922 7.07075C241.715 6.68089 241.521 6.28365 241.293 5.90692C240.976 5.38246 240.637 4.87032 240.297 4.35981C240.078 4.03151 239.847 3.71059 239.608 3.39543C239.259 2.93498 238.901 2.48029 238.539 2.0297C238.402 1.86062 238.251 1.70058 238.092 1.55284C237.954 1.4248 237.675 1.46748 237.589 1.61358C237.488 1.78347 237.432 1.96568 237.442 2.16512C237.452 2.36538 237.464 2.56565 237.473 2.76673C237.477 2.86686 237.474 2.96781 237.479 3.06795C237.497 3.39214 237.521 3.71552 237.536 4.03889C237.554 4.4345 237.565 4.8301 237.581 5.2257C237.599 5.64428 237.621 6.06287 237.641 6.48145C237.644 6.5192 237.647 6.55778 237.65 6.59553L237.62 6.60702C237.604 6.56763 237.59 6.52741 237.574 6.48801C237.546 6.43631 237.516 6.38542 237.491 6.33289C237.2 5.72718 236.913 5.11982 236.62 4.51575C236.449 4.16037 236.271 3.80662 236.087 3.45698C236.026 3.33879 235.948 3.22471 235.858 3.1254C235.743 2.99654 235.51 3.00557 235.377 3.11473C235.264 3.20829 235.222 3.33797 235.185 3.46683C235.006 4.08486 234.827 4.70288 234.663 5.32501C234.537 5.79941 234.436 6.28036 234.319 6.75722C234.198 7.25295 234.078 7.75033 233.944 8.24278C233.733 9.02742 233.512 9.80959 233.294 10.5926C233.284 10.6279 233.262 10.6591 233.236 10.7141C233.115 10.586 233.012 10.4736 232.905 10.3661C232.703 10.1617 232.481 9.97785 232.321 9.7308C232.172 9.49935 231.997 9.28349 231.83 9.06271C231.788 9.0069 231.744 8.94452 231.685 8.91005C231.491 8.7935 231.294 8.7853 231.151 9.00772C231.111 9.06928 231.101 9.14971 231.078 9.22194C231.068 9.24656 231.059 9.272 231.049 9.29662C231.047 9.3549 231.045 9.41317 231.043 9.47144C231.033 9.49607 231.023 9.52151 231.013 9.54613C230.989 9.83832 230.961 10.1297 230.944 10.4219C230.919 10.8577 230.901 11.2943 230.883 11.7301C230.874 11.9427 230.87 12.1561 230.866 12.3687C230.861 12.6108 230.86 12.8529 230.855 13.0951C230.849 13.329 230.863 13.567 230.826 13.7952C230.779 14.0791 230.664 14.3459 230.498 14.5864C230.217 14.9943 229.861 15.3316 229.485 15.6468C228.919 16.122 228.279 16.4872 227.628 16.8303C227.333 16.9862 227.013 17.0962 226.699 17.2152C226.009 17.4795 225.31 17.4056 224.625 17.2119C224.122 17.07 223.638 16.8615 223.141 16.6998C222.321 16.4322 221.513 16.1318 220.72 15.7904C220.218 15.5745 219.712 15.3694 219.207 15.1617C218.989 15.0722 218.759 15.0066 218.554 14.895C218.306 14.7595 218.042 14.6898 217.771 14.643C217.56 14.6061 217.291 14.7259 217.205 14.9729C217.136 15.1699 217.147 15.3735 217.178 15.568C217.213 15.7863 217.285 16.0013 217.361 16.2106C217.605 16.8877 217.857 17.5624 218.107 18.2379C218.306 18.7738 218.514 19.3057 218.698 19.8457C218.896 20.426 218.891 21.0137 218.689 21.5931C218.577 21.914 218.442 22.2267 218.326 22.5468C218.263 22.7216 218.19 22.8997 218.171 23.082C218.144 23.3364 218.361 23.581 218.621 23.6286C218.984 23.6951 219.348 23.6934 219.713 23.6392C219.835 23.6212 219.958 23.613 220.081 23.6007C220.106 23.5908 220.13 23.581 220.156 23.5711C220.308 23.5375 220.46 23.5038 220.612 23.471C220.802 23.43 220.993 23.3906 221.183 23.3503C221.052 23.7788 220.858 24.1818 220.655 24.579C220.513 24.8572 220.351 25.1256 220.209 25.403C220.15 25.5163 220.088 25.6427 220.123 25.7732C220.207 26.0769 220.38 26.1434 220.669 26.1146C220.881 26.0933 221.093 26.0145 221.29 25.9275C221.581 25.7995 221.856 25.6386 222.141 25.4982C222.693 25.2258 223.207 24.8901 223.726 24.5634C224.193 24.2688 224.659 23.9725 225.122 23.6786C225.28 23.9889 225.421 24.3008 225.593 24.5954C225.93 25.174 226.285 25.7436 226.633 26.3165C226.982 26.8919 227.329 27.468 227.683 28.0401C228.007 28.5637 228.337 29.0833 228.67 29.6012C228.788 29.7834 228.925 29.9541 229.052 30.1297C229.114 30.2143 229.136 30.2988 229.113 30.4096C228.967 31.1105 228.656 31.7302 228.196 32.2735C227.937 32.578 227.655 32.8628 227.385 33.1567C227.126 33.4374 226.816 33.654 226.508 33.8715C226.307 34.0135 226.099 34.1457 225.889 34.2745C225.817 34.3189 225.8 34.382 225.792 34.4502C225.761 34.7128 225.924 34.8934 226.191 34.8999C226.712 34.9123 227.232 34.927 227.752 34.9344C228.427 34.9434 229.103 34.9098 229.775 35.0042C229.996 35.0354 230.222 35.0419 230.446 35.0526C230.688 35.0641 230.934 35.0945 231.173 35.0682C231.463 35.0362 231.75 34.9607 232.022 34.8425C232.139 34.7916 232.26 34.7801 232.385 34.7998C232.502 34.8179 232.619 34.8367 232.735 34.8564C233.107 34.9196 233.471 35.0132 233.823 35.1495C234.278 35.3251 234.747 35.4687 235.192 35.6665C235.763 35.921 236.314 36.2173 236.876 36.4922C237.233 36.6678 237.59 36.85 237.956 37.0052C238.237 37.1242 238.53 37.2218 238.825 37.2982C239.15 37.3827 239.482 37.473 239.815 37.4853C240.304 37.5042 240.797 37.5313 241.288 37.4623C241.621 37.4155 241.96 37.4098 242.289 37.3466C242.849 37.2391 243.412 37.1447 243.951 36.9403C244.501 36.7319 245.066 36.5644 245.594 36.2977C246.056 36.0638 246.532 35.8561 246.996 35.6238C247.386 35.4285 247.77 35.2184 248.152 35.0066C248.501 34.8121 248.848 34.6119 249.191 34.4034C249.852 34.002 250.488 33.5621 251.113 33.1066C251.69 32.6864 252.296 32.308 252.851 31.8574C253.111 31.6457 253.385 31.4511 253.653 31.2476C253.938 31.0293 254.224 30.8101 254.507 30.5894C255.052 30.1667 255.602 29.7514 256.137 29.3172C256.466 29.0505 256.78 28.7624 257.088 28.471C257.484 28.0967 257.831 27.6773 258.165 27.2481C258.446 26.8853 258.705 26.5061 258.919 26.0982C259.051 25.8471 259.194 25.6008 259.306 25.3415C259.551 24.7727 259.749 24.1883 259.859 23.5744C259.95 23.0623 260.006 22.5485 259.999 22.0273C259.99 22.0027 259.981 21.978 259.973 21.9534H259.97ZM250.109 14.1095L250.102 14.121L250.099 14.1079L250.109 14.1095ZM241.763 18.5596C241.666 18.4275 241.532 18.3232 241.414 18.2051C241.347 18.1386 241.282 18.0713 241.195 17.9826C241.31 17.9555 241.396 17.9309 241.485 17.9153C241.875 17.8447 242.246 17.711 242.6 17.5402C243.055 17.3203 243.501 17.0798 243.945 16.836C244.171 16.7113 244.381 16.5594 244.61 16.4125C244.825 16.5742 245.03 16.7425 245.248 16.8902C245.677 17.1824 246.113 17.4656 246.549 17.7479C246.617 17.7922 246.659 17.8365 246.687 17.917C246.807 18.265 246.946 18.6072 247.067 18.956C247.131 19.1407 247.157 19.3319 247.104 19.5297C247.076 19.6364 247.067 19.7513 247.071 19.8622C247.075 19.9902 247.156 20.0854 247.268 20.1346C247.387 20.1872 247.519 20.2159 247.636 20.1158C247.964 19.8342 248.233 19.5125 248.351 19.066C248.754 19.5347 248.939 20.0813 249.071 20.6755C248.927 20.6755 248.8 20.6796 248.672 20.6747C248.573 20.6706 248.473 20.6517 248.374 20.6476L246.856 20.5688C246.639 20.5171 246.422 20.5434 246.207 20.5212C246.182 20.5122 246.157 20.5032 246.132 20.4949C245.741 20.4794 245.35 20.4629 244.961 20.4473C244.924 20.4391 244.887 20.4317 244.849 20.4235C244.457 20.4227 244.065 20.4211 243.671 20.4203C243.634 20.4293 243.598 20.4383 243.561 20.4473C243.444 20.4506 243.326 20.4531 243.208 20.4564C243.184 20.4654 243.158 20.4744 243.133 20.4835C243.069 20.4867 243.004 20.49 242.927 20.4949C242.831 20.3045 242.739 20.1141 242.639 19.9278C242.548 19.7563 242.456 19.5839 242.35 19.4214C242.162 19.13 241.97 18.8395 241.765 18.5604L241.763 18.5596Z" fill="white"></path>
</svg>
