<svg xmlns:xlink="http://www.w3.org/1999/xlink" xmlns="http://www.w3.org/2000/svg" width="43" height="37" viewBox="0 0 43 37" fill="none">
  <path d="M42.8163 20.4766C42.8097 20.406 42.8031 20.3354 42.7982 20.2649C42.7842 20.0827 42.7859 19.898 42.7554 19.7191C42.6995 19.3883 42.6329 19.0584 42.558 18.7309C42.4288 18.1646 42.2594 17.6097 42.0249 17.0787C41.7839 16.5329 41.4852 16.0167 41.1175 15.5447C40.9884 15.3789 40.8855 15.1934 40.7029 15.0679C40.4915 14.9218 40.1797 15.0539 40.1295 15.2911C40.0933 15.4618 40.0974 15.6416 40.0843 15.8164C40.0744 15.9001 40.0645 15.9846 40.0547 16.0684C40.0645 16.4164 40.0374 16.7611 39.9864 17.105C39.951 17.3438 39.9461 17.5868 39.9033 17.8239C39.7963 18.4141 39.6762 19.0017 39.5611 19.5894C39.5471 19.6608 39.5323 19.7314 39.5183 19.8028C39.5125 19.802 39.5068 19.8003 39.501 19.7995C39.501 19.7289 39.501 19.6575 39.501 19.5869C39.4878 19.4827 39.473 19.3776 39.4632 19.2734C39.4582 19.2209 39.4656 19.1667 39.4599 19.1133C39.4261 18.8351 39.3965 18.5561 39.3538 18.2786C39.3266 18.1055 39.2871 17.9339 39.2378 17.7657C39.2007 17.6417 39.0263 17.5236 38.9276 17.5433C38.7828 17.5728 38.6405 17.6089 38.5558 17.7525C38.5048 17.8387 38.439 17.9151 38.388 18.0012C38.0778 18.5208 37.7734 19.0444 37.4592 19.5615C37.2149 19.9628 36.9557 20.3551 36.7073 20.754C36.5707 20.9732 36.4218 21.1685 36.1273 21.1595C36.1224 21.1595 36.1174 21.166 36.1117 21.1669C35.7259 21.2325 35.3598 21.3745 34.9739 21.4443C34.533 21.5247 34.1011 21.6544 33.6618 21.7463C33.1534 21.853 32.6434 21.9499 32.1309 22.0352C31.5459 22.1329 30.9578 22.2133 30.3712 22.3003C30.1112 22.3389 29.8505 22.375 29.5905 22.4119C29.5798 22.4563 29.5634 22.4866 29.5165 22.4415C29.4581 22.4431 29.3996 22.4456 29.3412 22.4472C29.3305 22.4916 29.3141 22.5219 29.2672 22.4768C29.1372 22.4907 29.0081 22.5047 28.8781 22.5186C28.8674 22.563 28.8509 22.5933 28.804 22.5482C28.7448 22.5498 28.6848 22.5449 28.6264 22.5539C28.28 22.6089 27.9345 22.6688 27.589 22.7255C27.3644 22.7624 27.1357 22.7821 26.9161 22.8396C26.8017 22.8699 26.6495 22.9011 26.6043 23.0316C26.5738 23.1211 26.5171 23.1383 26.4529 23.1761C26.3896 23.2138 26.332 23.2721 26.2925 23.3345C26.2357 23.4248 26.2028 23.5298 26.1493 23.6226C26.086 23.7325 26.0078 23.8343 25.9445 23.9443C25.84 24.1281 25.7446 24.3169 25.6401 24.4999C25.6179 24.5385 25.5735 24.5656 25.5398 24.5976C25.5249 24.5943 25.5101 24.591 25.4962 24.5878C25.5472 24.4835 25.409 24.4203 25.4739 24.3046C25.6434 24.0034 25.8005 23.6948 25.9667 23.3919C26.1074 23.135 26.2546 22.8806 26.4027 22.6188C26.6997 22.5794 27.0049 22.5416 27.3085 22.4981C27.6984 22.4423 28.0875 22.3799 28.4766 22.3225C28.6576 22.2954 28.8476 22.2987 29.0171 22.2404C29.1701 22.1879 29.3231 22.183 29.4753 22.1575C29.6711 22.1247 29.8686 22.1001 30.0643 22.0705C30.261 22.041 30.4576 22.0073 30.6542 21.9794C30.8508 21.9515 31.0491 21.9302 31.2457 21.9014C31.541 21.8579 31.8355 21.8128 32.13 21.7652C32.4015 21.7209 32.6837 21.7233 32.9305 21.5748C32.9502 21.5625 32.9733 21.5543 32.9963 21.5493C33.3443 21.4632 33.6923 21.377 34.0402 21.2916C34.1922 21.2544 34.2645 21.1554 34.2574 20.9945C34.2574 20.9765 34.2541 20.9592 34.2533 20.9412C34.2443 20.7294 34.2344 20.5168 34.2253 20.3051C34.222 20.2706 34.2196 20.2361 34.2163 20.2017C34.2237 20.1984 34.2319 20.1951 34.2393 20.1918C34.2566 20.2279 34.2739 20.264 34.2911 20.3002C34.4252 20.5332 34.5585 20.7672 34.6934 20.9994C34.723 21.0511 34.7601 21.1094 34.8308 21.0864C34.9526 21.047 35.0776 21.0093 35.1903 20.9502C35.3458 20.8681 35.4865 20.7581 35.6419 20.6769C35.8344 20.5759 36.0368 20.4939 36.231 20.3978C36.2811 20.3732 36.3346 20.3338 36.3626 20.287C36.5444 19.9776 36.7188 19.6641 36.8965 19.3522C36.9368 19.2824 36.9294 19.2307 36.8784 19.1626C36.7237 18.9558 36.5789 18.7415 36.4333 18.5273C36.0895 18.0217 35.7555 17.5088 35.4025 17.0098C35.2487 16.7923 35.1072 16.5764 35.048 16.3129C35.0159 16.171 34.9731 16.0314 34.9345 15.8903C34.9007 15.7942 34.867 15.6982 34.8333 15.6014C34.8218 15.5808 34.8061 15.5611 34.7995 15.539C34.6704 15.1023 34.4754 14.6944 34.2549 14.2972C34.1809 14.1634 34.0986 14.0304 34.0518 13.886C33.8148 13.1563 33.5705 12.4283 33.4208 11.6749C33.3278 11.2079 33.2472 10.7376 33.1699 10.2681C33.1287 10.0186 33.0999 9.76664 33.0744 9.51467C33.0473 9.24546 33.0152 8.97543 33.0144 8.70541C33.0144 8.45918 33.0473 8.21132 33.0761 7.96591C33.1312 7.50055 33.2275 7.04421 33.4356 6.62152C33.6519 6.1816 33.9374 5.79667 34.3701 5.53977C34.6358 5.38219 34.9262 5.2837 35.2298 5.30504C35.7489 5.34115 36.1849 5.57671 36.5592 5.93784C36.8397 6.20868 37.038 6.53288 37.2083 6.87595C37.3177 7.09756 37.3967 7.33393 37.4872 7.56456C37.4962 7.58672 37.488 7.61545 37.488 7.645C37.3572 7.58919 37.2412 7.5342 37.1203 7.48988C36.6991 7.33393 36.305 7.50055 36.1158 7.92159C35.9759 8.23266 35.9817 8.54946 36.0648 8.86709C36.2162 9.44572 36.5304 9.94802 36.8414 10.4479C37.0849 10.8394 37.372 11.1997 37.692 11.5329C37.8113 11.6568 37.9297 11.7832 38.0638 11.8899C38.2942 12.0746 38.49 12.0877 38.6989 11.8234C39.0272 11.4081 39.3784 11.0117 39.6779 10.5726C39.9888 10.1155 40.2537 9.6386 40.3969 9.10183C40.4874 8.76286 40.5145 8.41568 40.4421 8.07097C40.3821 7.78535 40.2579 7.53502 40.0308 7.32737C39.7544 7.07458 39.2616 6.92602 38.8741 7.12054C38.6561 7.2297 38.4423 7.34132 38.3032 7.55472C38.2868 7.58098 38.2506 7.59411 38.2218 7.61463C38.1889 7.52763 38.1576 7.45212 38.1305 7.37415C37.9314 6.81194 37.7167 6.26121 37.3218 5.79503C36.9812 5.39286 36.6069 5.04486 36.115 4.83803C35.6074 4.62463 35.085 4.57375 34.5536 4.71902C34.19 4.81833 33.8815 5.01367 33.6034 5.27631C33.2579 5.60215 32.9946 5.97887 32.803 6.40648C32.4945 7.09427 32.3892 7.8272 32.3719 8.57163C32.3637 8.93029 32.399 9.2906 32.4278 9.64927C32.4558 9.98988 32.4838 10.3321 32.543 10.6678C32.6458 11.2538 32.7725 11.8358 32.8893 12.4185C32.9 12.4702 32.9124 12.5219 32.9329 12.6155C32.8589 12.5531 32.8194 12.5186 32.7799 12.4858C32.5973 12.3356 32.4245 12.1706 32.2287 12.0401C31.6957 11.6847 31.1338 11.3794 30.5143 11.1972C30.4123 11.1668 30.3498 11.1135 30.3046 11.0265C30.2478 10.9173 30.1935 10.8065 30.1326 10.6998C29.8858 10.2706 29.6349 9.84379 29.3873 9.41536C29.1956 9.08377 29.0064 8.75055 28.8147 8.41897C28.6231 8.08738 28.4338 7.75498 28.2348 7.4275C28.0299 7.09017 27.8177 6.75695 27.6013 6.42618C27.5413 6.33344 27.4648 6.24726 27.3817 6.17503C27.2295 6.04289 26.9259 6.01745 26.7458 6.19391C26.4496 6.48281 26.1592 6.77828 25.868 7.07211C25.7857 7.15501 25.7059 7.24119 25.6105 7.34132C25.5751 7.26909 25.5504 7.21821 25.5258 7.1665C25.3563 6.80537 25.1877 6.44342 25.0157 6.08311C24.9367 5.91814 24.8545 5.75563 24.7689 5.59394C24.5616 5.20408 24.3675 4.80684 24.1396 4.43012C23.8221 3.90566 23.4831 3.39351 23.1434 2.883C22.9245 2.5547 22.6934 2.23379 22.4548 1.91862C22.1052 1.45818 21.7473 1.00348 21.3853 0.55289C21.2488 0.383815 21.0974 0.223769 20.9387 0.0760342C20.8004 -0.0520029 20.5216 -0.00932408 20.4352 0.13677C20.3348 0.306665 20.2789 0.488872 20.2888 0.688314C20.2986 0.888577 20.3101 1.08884 20.3192 1.28992C20.3233 1.39006 20.32 1.49101 20.3258 1.59114C20.3439 1.91534 20.3677 2.23871 20.3825 2.56209C20.4006 2.95769 20.4113 3.35329 20.4278 3.74889C20.4459 4.16748 20.4673 4.58606 20.487 5.00464C20.4903 5.0424 20.4936 5.08097 20.4961 5.11873L20.4664 5.13022C20.4508 5.09082 20.436 5.0506 20.4204 5.01121C20.3924 4.9595 20.3628 4.90861 20.3373 4.85609C20.0469 4.25037 19.7598 3.64302 19.4669 3.03894C19.295 2.68356 19.1173 2.32982 18.9338 1.98018C18.8721 1.86199 18.794 1.7479 18.7043 1.64859C18.5891 1.51973 18.3563 1.52876 18.2239 1.63792C18.1104 1.73149 18.0684 1.86117 18.0314 1.99002C17.8529 2.60805 17.6735 3.22608 17.509 3.8482C17.3831 4.3226 17.282 4.80356 17.1651 5.28041C17.0442 5.77615 16.9241 6.27352 16.7908 6.76597C16.5794 7.55061 16.3581 8.33279 16.1401 9.11578C16.1302 9.15107 16.1088 9.18226 16.0825 9.23725C15.9616 9.10922 15.8588 8.99677 15.7518 8.88926C15.5494 8.68489 15.3273 8.50104 15.1677 8.25399C15.018 8.02254 14.8436 7.80668 14.6766 7.5859C14.6347 7.53009 14.5902 7.46771 14.5318 7.43324C14.3377 7.3167 14.1402 7.30849 13.9971 7.53091C13.9576 7.59247 13.9477 7.6729 13.9247 7.74513C13.9148 7.76975 13.905 7.7952 13.8951 7.81982C13.8934 7.87809 13.891 7.93636 13.8893 7.99464C13.8795 8.01926 13.8696 8.0447 13.8597 8.06933C13.8359 8.36151 13.8071 8.65288 13.7906 8.94507C13.7659 9.38089 13.7478 9.81752 13.7297 10.2533C13.7207 10.4659 13.7166 10.6793 13.7125 10.8919C13.7075 11.134 13.7067 11.3761 13.7009 11.6183C13.6952 11.8522 13.7092 12.0902 13.6721 12.3184C13.6253 12.6023 13.5109 12.8691 13.3447 13.1096C13.0634 13.5175 12.7072 13.8548 12.3312 14.17C11.7652 14.6452 11.1252 15.0104 10.4745 15.3535C10.1792 15.5094 9.85915 15.6194 9.54572 15.7384C8.85551 16.0027 8.15625 15.9288 7.47098 15.7351C6.96834 15.5931 6.48462 15.3847 5.98774 15.223C5.16755 14.9554 4.3597 14.655 3.56667 14.3136C3.06485 14.0977 2.55892 13.8926 2.05381 13.6849C1.8358 13.5954 1.60546 13.5298 1.40062 13.4182C1.15218 13.2827 0.888106 13.213 0.617453 13.1662C0.406854 13.1293 0.137846 13.2491 0.0514674 13.4961C-0.0176355 13.6931 -0.00694119 13.8967 0.0243197 14.0912C0.0596938 14.3095 0.131265 14.5245 0.206949 14.7338C0.451277 15.4109 0.703832 16.0856 0.953918 16.7611C1.15218 17.297 1.36031 17.8289 1.54458 18.3689C1.74284 18.9492 1.73791 19.5369 1.53553 20.1163C1.42365 20.4372 1.28874 20.7499 1.17274 21.07C1.1094 21.2448 1.03618 21.4229 1.01726 21.6051C0.990115 21.8596 1.2073 22.1042 1.46725 22.1518C1.83004 22.2182 2.19448 22.2166 2.55974 22.1624C2.68149 22.1444 2.80489 22.1362 2.92747 22.1239C2.95214 22.114 2.97682 22.1042 3.00233 22.0943C3.15452 22.0607 3.30671 22.027 3.4589 21.9942C3.64893 21.9531 3.83979 21.9137 4.02982 21.8735C3.8982 22.302 3.70487 22.705 3.50168 23.1022C3.35936 23.3804 3.1973 23.6488 3.05498 23.9262C2.99657 24.0395 2.93405 24.1659 2.96942 24.2964C3.05333 24.6001 3.22609 24.6665 3.51566 24.6378C3.72708 24.6165 3.93933 24.5377 4.13677 24.4507C4.42716 24.3227 4.70275 24.1618 4.98739 24.0214C5.53939 23.7489 6.05355 23.4133 6.57264 23.0866C7.03991 22.792 7.50553 22.4957 7.96869 22.2018C8.12664 22.5121 8.26731 22.824 8.43925 23.1186C8.77653 23.6972 9.1311 24.2668 9.47908 24.8397C9.82871 25.4151 10.175 25.9912 10.5296 26.5633C10.8537 27.0869 11.1836 27.6065 11.5168 28.1244C11.6344 28.3066 11.771 28.4773 11.8985 28.6529C11.9602 28.7375 11.9824 28.822 11.9594 28.9328C11.8138 29.6337 11.5028 30.2534 11.0421 30.7967C10.7838 31.1012 10.5016 31.386 10.231 31.6799C9.97267 31.9606 9.66253 32.1772 9.35404 32.3947C9.15331 32.5367 8.94518 32.6689 8.7354 32.7977C8.66383 32.842 8.64655 32.9052 8.63833 32.9734C8.60789 33.236 8.76995 33.4166 9.03732 33.4231C9.55806 33.4354 10.078 33.4502 10.5987 33.4576C11.2733 33.4666 11.9495 33.433 12.6216 33.5274C12.8429 33.5586 13.0683 33.5651 13.2921 33.5758C13.5348 33.5873 13.7807 33.6177 14.0193 33.5914C14.3097 33.5594 14.5968 33.4839 14.8683 33.3657C14.9851 33.3148 15.1069 33.3033 15.2319 33.323C15.3487 33.3411 15.4655 33.3599 15.5815 33.3796C15.9534 33.4428 16.317 33.5364 16.6699 33.6726C17.1248 33.8483 17.5937 33.9919 18.0388 34.1897C18.6097 34.4442 19.1609 34.7404 19.7219 35.0154C20.0798 35.191 20.436 35.3732 20.8029 35.5284C21.0834 35.6474 21.3763 35.745 21.6716 35.8214C21.9966 35.9059 22.3289 35.9962 22.6613 36.0085C23.1508 36.0274 23.6435 36.0545 24.1347 35.9855C24.467 35.9387 24.8068 35.933 25.135 35.8698C25.6952 35.7623 26.2588 35.6679 26.7976 35.4635C27.3471 35.2551 27.9123 35.0876 28.4404 34.8209C28.9028 34.587 29.3783 34.3793 29.8422 34.147C30.2322 33.9517 30.6163 33.7416 30.9981 33.5298C31.3477 33.3353 31.6948 33.1351 32.0371 32.9266C32.6985 32.5252 33.3344 32.0853 33.9596 31.6298C34.5363 31.2096 35.1426 30.8312 35.6979 30.3806C35.9578 30.1689 36.2318 29.9743 36.4991 29.7708C36.7846 29.5525 37.0701 29.3333 37.3539 29.1126C37.8985 28.6899 38.448 28.2746 38.9836 27.8404C39.3126 27.5736 39.6261 27.2856 39.9346 26.9942C40.3302 26.6199 40.6774 26.2005 41.0114 25.7713C41.2928 25.4085 41.5519 25.0293 41.7658 24.6214C41.8974 24.3703 42.0405 24.124 42.1524 23.8647C42.3976 23.2959 42.5958 22.7115 42.7052 22.0976C42.7966 21.5854 42.8525 21.0717 42.8459 20.5505C42.8369 20.5259 42.8278 20.5012 42.8196 20.4766H42.8163ZM32.9552 12.6327L32.9486 12.6442L32.9453 12.6311L32.9552 12.6327ZM24.6093 17.0828C24.5123 16.9507 24.3782 16.8464 24.2605 16.7282C24.1939 16.6618 24.1289 16.5945 24.0417 16.5058C24.156 16.4787 24.2424 16.4541 24.3313 16.4385C24.7212 16.3679 25.0922 16.2342 25.446 16.0634C25.9017 15.8435 26.3476 15.603 26.791 15.3592C27.0172 15.2345 27.2278 15.0826 27.4565 14.9357C27.6712 15.0974 27.8761 15.2657 28.0941 15.4134C28.5235 15.7056 28.9595 15.9887 29.3955 16.2711C29.4638 16.3154 29.5058 16.3597 29.5337 16.4402C29.6538 16.7882 29.792 17.1304 29.913 17.4792C29.9771 17.6639 30.0035 17.8551 29.9508 18.0529C29.9229 18.1596 29.913 18.2745 29.9171 18.3853C29.9212 18.5134 30.0026 18.6086 30.1145 18.6578C30.2338 18.7104 30.3654 18.7391 30.4823 18.639C30.8105 18.3574 31.0795 18.0357 31.1971 17.5892C31.6002 18.0579 31.7853 18.6045 31.917 19.1987C31.7738 19.1987 31.6463 19.2028 31.5188 19.1979C31.4193 19.1938 31.3197 19.1749 31.2202 19.1708L29.7024 19.092C29.4852 19.0403 29.2688 19.0666 29.0533 19.0444C29.0286 19.0354 29.0031 19.0263 28.9784 19.0181C28.5877 19.0025 28.1969 18.9861 27.807 18.9705C27.77 18.9623 27.7329 18.9549 27.6959 18.9467C27.3035 18.9459 26.9111 18.9443 26.5179 18.9435C26.4809 18.9525 26.4447 18.9615 26.4077 18.9705C26.29 18.9738 26.1724 18.9763 26.0547 18.9796C26.0301 18.9886 26.0046 18.9976 25.9799 19.0066C25.9157 19.0099 25.8507 19.0132 25.7734 19.0181C25.6771 18.8277 25.585 18.6373 25.4855 18.451C25.3941 18.2795 25.3028 18.1071 25.1967 17.9446C25.0083 17.6532 24.8166 17.3627 24.611 17.0836L24.6093 17.0828Z" fill="#FF0000"/>
</svg>