<?xml version="1.0" encoding="UTF-8"?>
<svg xmlns="http://www.w3.org/2000/svg" width="707" height="132" viewBox="0 0 707 132" fill="none">
  <path d="M-3.60146 132V29.6697H-29.3681V0.590185H56.398V29.6697H30.6313V132H-3.60146ZM64.1121 132V0.590185H98.345V48.8106H119.326V0.590185H153.559V132H119.326V77.8901H98.345V132H64.1121ZM169.796 132V0.590185H247.648V28.5654H204.028V51.0192H244.887V77.8901H204.028V104.025H249.304V132H169.796ZM320.099 132V29.6697H294.332V0.590185H380.098V29.6697H354.332V132H320.099ZM387.813 132V0.590185H465.665V28.5654H422.045V51.0192H462.904V77.8901H422.045V104.025H467.321V132H387.813ZM532.474 83.2274L523.087 27.4611H522.719L513.333 83.2274H532.474ZM469.346 132L501.37 0.590185H544.437L576.461 132H540.02L536.523 108.994H509.284L505.787 132H469.346ZM580.816 132V0.590185H629.773L643.577 78.4422H643.945L657.748 0.590185H706.705V132H674.681V34.0868H674.313L656.092 132H631.429L613.209 34.0868H612.841V132H580.816Z" fill="white"></path>
</svg>
