<?xml version="1.0" encoding="UTF-8"?>
<svg xmlns="http://www.w3.org/2000/svg" width="707" height="132" viewBox="0 0 707 132" fill="none">
  <g opacity="0.1">
    <mask id="path-1-inside-1_1003_4137" fill="white">
      <path d="M-3.60146 132V29.6697H-29.3681V0.590185H56.398V29.6697H30.6313V132H-3.60146ZM64.1121 132V0.590185H98.345V48.8106H119.326V0.590185H153.559V132H119.326V77.8901H98.345V132H64.1121ZM169.796 132V0.590185H247.648V28.5654H204.028V51.0192H244.887V77.8901H204.028V104.025H249.304V132H169.796ZM320.099 132V29.6697H294.332V0.590185H380.098V29.6697H354.332V132H320.099ZM387.813 132V0.590185H465.665V28.5654H422.045V51.0192H462.904V77.8901H422.045V104.025H467.321V132H387.813ZM532.474 83.2274L523.087 27.4611H522.719L513.333 83.2274H532.474ZM469.346 132L501.37 0.590185H544.437L576.461 132H540.02L536.523 108.994H509.284L505.787 132H469.346ZM580.816 132V0.590185H629.773L643.577 78.4422H643.945L657.748 0.590185H706.705V132H674.681V34.0868H674.313L656.092 132H631.429L613.209 34.0868H612.841V132H580.816Z"></path>
    </mask>
    <path d="M-3.60146 132H-5.3174V133.716H-3.60146V132ZM-3.60146 29.6697H-1.88553V27.9537H-3.60146V29.6697ZM-29.3681 29.6697H-31.084V31.3856H-29.3681V29.6697ZM-29.3681 0.590185V-1.12575H-31.084V0.590185H-29.3681ZM56.398 0.590185H58.1139V-1.12575H56.398V0.590185ZM56.398 29.6697V31.3856H58.1139V29.6697H56.398ZM30.6313 29.6697V27.9537H28.9154V29.6697H30.6313ZM30.6313 132V133.716H32.3473V132H30.6313ZM-1.88553 132V29.6697H-5.3174V132H-1.88553ZM-3.60146 27.9537H-29.3681V31.3856H-3.60146V27.9537ZM-27.6522 29.6697V0.590185H-31.084V29.6697H-27.6522ZM-29.3681 2.30612H56.398V-1.12575H-29.3681V2.30612ZM54.682 0.590185V29.6697H58.1139V0.590185H54.682ZM56.398 27.9537H30.6313V31.3856H56.398V27.9537ZM28.9154 29.6697V132H32.3473V29.6697H28.9154ZM30.6313 130.284H-3.60146V133.716H30.6313V130.284ZM64.1121 132H62.3962V133.716H64.1121V132ZM64.1121 0.590185V-1.12575H62.3962V0.590185H64.1121ZM98.345 0.590185H100.061V-1.12575H98.345V0.590185ZM98.345 48.8106H96.629V50.5265H98.345V48.8106ZM119.326 48.8106V50.5265H121.042V48.8106H119.326ZM119.326 0.590185V-1.12575H117.61V0.590185H119.326ZM153.559 0.590185H155.275V-1.12575H153.559V0.590185ZM153.559 132V133.716H155.275V132H153.559ZM119.326 132H117.61V133.716H119.326V132ZM119.326 77.8901H121.042V76.1741H119.326V77.8901ZM98.345 77.8901V76.1741H96.629V77.8901H98.345ZM98.345 132V133.716H100.061V132H98.345ZM65.8281 132V0.590185H62.3962V132H65.8281ZM64.1121 2.30612H98.345V-1.12575H64.1121V2.30612ZM96.629 0.590185V48.8106H100.061V0.590185H96.629ZM98.345 50.5265H119.326V47.0947H98.345V50.5265ZM121.042 48.8106V0.590185H117.61V48.8106H121.042ZM119.326 2.30612H153.559V-1.12575H119.326V2.30612ZM151.843 0.590185V132H155.275V0.590185H151.843ZM153.559 130.284H119.326V133.716H153.559V130.284ZM121.042 132V77.8901H117.61V132H121.042ZM119.326 76.1741H98.345V79.606H119.326V76.1741ZM96.629 77.8901V132H100.061V77.8901H96.629ZM98.345 130.284H64.1121V133.716H98.345V130.284ZM169.796 132H168.08V133.716H169.796V132ZM169.796 0.590185V-1.12575H168.08V0.590185H169.796ZM247.648 0.590185H249.364V-1.12575H247.648V0.590185ZM247.648 28.5654V30.2813H249.364V28.5654H247.648ZM204.028 28.5654V26.8494H202.312V28.5654H204.028ZM204.028 51.0192H202.312V52.7351H204.028V51.0192ZM244.887 51.0192H246.603V49.3032H244.887V51.0192ZM244.887 77.8901V79.606H246.603V77.8901H244.887ZM204.028 77.8901V76.1741H202.312V77.8901H204.028ZM204.028 104.025H202.312V105.741H204.028V104.025ZM249.304 104.025H251.02V102.309H249.304V104.025ZM249.304 132V133.716H251.02V132H249.304ZM171.512 132V0.590185H168.08V132H171.512ZM169.796 2.30612H247.648V-1.12575H169.796V2.30612ZM245.932 0.590185V28.5654H249.364V0.590185H245.932ZM247.648 26.8494H204.028V30.2813H247.648V26.8494ZM202.312 28.5654V51.0192H205.744V28.5654H202.312ZM204.028 52.7351H244.887V49.3032H204.028V52.7351ZM243.171 51.0192V77.8901H246.603V51.0192H243.171ZM244.887 76.1741H204.028V79.606H244.887V76.1741ZM202.312 77.8901V104.025H205.744V77.8901H202.312ZM204.028 105.741H249.304V102.309H204.028V105.741ZM247.588 104.025V132H251.02V104.025H247.588ZM249.304 130.284H169.796V133.716H249.304V130.284ZM320.099 132H318.383V133.716H320.099V132ZM320.099 29.6697H321.815V27.9537H320.099V29.6697ZM294.332 29.6697H292.616V31.3856H294.332V29.6697ZM294.332 0.590185V-1.12575H292.616V0.590185H294.332ZM380.098 0.590185H381.814V-1.12575H380.098V0.590185ZM380.098 29.6697V31.3856H381.814V29.6697H380.098ZM354.332 29.6697V27.9537H352.616V29.6697H354.332ZM354.332 132V133.716H356.048V132H354.332ZM321.815 132V29.6697H318.383V132H321.815ZM320.099 27.9537H294.332V31.3856H320.099V27.9537ZM296.048 29.6697V0.590185H292.616V29.6697H296.048ZM294.332 2.30612H380.098V-1.12575H294.332V2.30612ZM378.383 0.590185V29.6697H381.814V0.590185H378.383ZM380.098 27.9537H354.332V31.3856H380.098V27.9537ZM352.616 29.6697V132H356.048V29.6697H352.616ZM354.332 130.284H320.099V133.716H354.332V130.284ZM387.813 132H386.097V133.716H387.813V132ZM387.813 0.590185V-1.12575H386.097V0.590185H387.813ZM465.665 0.590185H467.381V-1.12575H465.665V0.590185ZM465.665 28.5654V30.2813H467.381V28.5654H465.665ZM422.045 28.5654V26.8494H420.329V28.5654H422.045ZM422.045 51.0192H420.329V52.7351H422.045V51.0192ZM462.904 51.0192H464.62V49.3032H462.904V51.0192ZM462.904 77.8901V79.606H464.62V77.8901H462.904ZM422.045 77.8901V76.1741H420.329V77.8901H422.045ZM422.045 104.025H420.329V105.741H422.045V104.025ZM467.321 104.025H469.037V102.309H467.321V104.025ZM467.321 132V133.716H469.037V132H467.321ZM389.529 132V0.590185H386.097V132H389.529ZM387.813 2.30612H465.665V-1.12575H387.813V2.30612ZM463.949 0.590185V28.5654H467.381V0.590185H463.949ZM465.665 26.8494H422.045V30.2813H465.665V26.8494ZM420.329 28.5654V51.0192H423.761V28.5654H420.329ZM422.045 52.7351H462.904V49.3032H422.045V52.7351ZM461.188 51.0192V77.8901H464.62V51.0192H461.188ZM462.904 76.1741H422.045V79.606H462.904V76.1741ZM420.329 77.8901V104.025H423.761V77.8901H420.329ZM422.045 105.741H467.321V102.309H422.045V105.741ZM465.605 104.025V132H469.037V104.025H465.605ZM467.321 130.284H387.813V133.716H467.321V130.284ZM532.474 83.2274V84.9434H534.503L534.166 82.9426L532.474 83.2274ZM523.087 27.4611L524.78 27.1763L524.539 25.7452H523.087V27.4611ZM522.719 27.4611V25.7452H521.268L521.027 27.1763L522.719 27.4611ZM513.333 83.2274L511.641 82.9426L511.304 84.9434H513.333V83.2274ZM469.346 132L467.678 131.594L467.161 133.716H469.346V132ZM501.37 0.590185V-1.12575H500.022L499.703 0.183906L501.37 0.590185ZM544.437 0.590185L546.104 0.183906L545.785 -1.12575H544.437V0.590185ZM576.461 132V133.716H578.646L578.128 131.594L576.461 132ZM540.02 132L538.323 132.258L538.545 133.716H540.02V132ZM536.523 108.994L538.219 108.736L537.998 107.278H536.523V108.994ZM509.284 108.994V107.278H507.809L507.587 108.736L509.284 108.994ZM505.787 132V133.716H507.262L507.483 132.258L505.787 132ZM534.166 82.9426L524.78 27.1763L521.395 27.7459L530.782 83.5123L534.166 82.9426ZM523.087 25.7452H522.719V29.177H523.087V25.7452ZM521.027 27.1763L511.641 82.9426L515.025 83.5123L524.411 27.7459L521.027 27.1763ZM513.333 84.9434H532.474V81.5115H513.333V84.9434ZM471.013 132.406L503.037 0.996464L499.703 0.183906L467.678 131.594L471.013 132.406ZM501.37 2.30612H544.437V-1.12575H501.37V2.30612ZM542.77 0.996464L574.794 132.406L578.128 131.594L546.104 0.183906L542.77 0.996464ZM576.461 130.284H540.02V133.716H576.461V130.284ZM541.716 131.742L538.219 108.736L534.826 109.252L538.323 132.258L541.716 131.742ZM536.523 107.278H509.284V110.71H536.523V107.278ZM507.587 108.736L504.091 131.742L507.483 132.258L510.98 109.252L507.587 108.736ZM505.787 130.284H469.346V133.716H505.787V130.284ZM580.816 132H579.101V133.716H580.816V132ZM580.816 0.590185V-1.12575H579.101V0.590185H580.816ZM629.773 0.590185L631.463 0.290613L631.211 -1.12575H629.773V0.590185ZM643.577 78.4422L641.887 78.7418L642.138 80.1582H643.577V78.4422ZM643.945 78.4422V80.1582H645.383L645.634 78.7418L643.945 78.4422ZM657.748 0.590185V-1.12575H656.31L656.059 0.290614L657.748 0.590185ZM706.705 0.590185H708.421V-1.12575H706.705V0.590185ZM706.705 132V133.716H708.421V132H706.705ZM674.681 132H672.965V133.716H674.681V132ZM674.681 34.0868H676.397V32.3709H674.681V34.0868ZM674.312 34.0868V32.3709H672.886L672.626 33.7729L674.312 34.0868ZM656.092 132V133.716H657.518L657.779 132.314L656.092 132ZM631.43 132L629.742 132.314L630.003 133.716H631.43V132ZM613.209 34.0868L614.896 33.7729L614.635 32.3709H613.209V34.0868ZM612.841 34.0868V32.3709H611.125V34.0868H612.841ZM612.841 132V133.716H614.557V132H612.841ZM582.532 132V0.590185H579.101V132H582.532ZM580.816 2.30612H629.773V-1.12575H580.816V2.30612ZM628.083 0.889757L641.887 78.7418L645.266 78.1426L631.463 0.290613L628.083 0.889757ZM643.577 80.1582H643.945V76.7263H643.577V80.1582ZM645.634 78.7418L659.438 0.889756L656.059 0.290614L642.255 78.1426L645.634 78.7418ZM657.748 2.30612H706.705V-1.12575H657.748V2.30612ZM704.989 0.590185V132H708.421V0.590185H704.989ZM706.705 130.284H674.681V133.716H706.705V130.284ZM676.397 132V34.0868H672.965V132H676.397ZM674.681 32.3709H674.312V35.8027H674.681V32.3709ZM672.626 33.7729L654.405 131.686L657.779 132.314L676 34.4007L672.626 33.7729ZM656.092 130.284H631.43V133.716H656.092V130.284ZM633.116 131.686L614.896 33.7729L611.522 34.4007L629.742 132.314L633.116 131.686ZM613.209 32.3709H612.841V35.8027H613.209V32.3709ZM611.125 34.0868V132H614.557V34.0868H611.125ZM612.841 130.284H580.816V133.716H612.841V130.284Z" fill="white" mask="url(#path-1-inside-1_1003_4137)"></path>
  </g>
</svg>
